<svg viewBox="0 -22 512.001 512" xmlns="http://www.w3.org/2000/svg"><path d="m285.921875 12.394531c0 16.523438-13.398437 29.921875-29.921875 29.921875s-29.921875-13.398437-29.921875-29.921875c0-16.523437 59.84375-16.523437 59.84375 0zm0 0" fill="#d8d8d8"/><path d="m256 38.199219c-119.09375 0-215.640625 96.546875-215.640625 215.640625h431.28125c0-119.09375-96.546875-215.640625-215.640625-215.640625zm0 0" fill="#efefef"/><path d="m256 38.199219c-10.066406 0-19.964844.707031-29.660156 2.042969 105.054687 14.453124 185.976562 104.566406 185.976562 213.597656h59.324219c0-119.09375-96.546875-215.640625-215.640625-215.640625zm0 0" fill="#e2e2e2"/><path d="m497.207031 286.546875h-482.414062c-8.171875 0-14.792969-6.625-14.792969-14.792969v-9.417968c0-8.167969 6.621094-14.792969 14.792969-14.792969h482.417969c8.167968 0 14.789062 6.625 14.789062 14.792969v9.417968c0 8.167969-6.621094 14.792969-14.792969 14.792969zm0 0" fill="#d8d8d8"/><path d="m124.910156 451.203125 3.539063-15.128906c4.992187-21.328125 21.859375-38.269531 42.96875-43.15625 22.308593-5.167969 48-1.933594 65.382812.945312 19.605469 3.25 40.207031 2.140625 59.570313-3.214843l28.410156-7.851563c17.929688-4.953125 34.433594-13.300781 49.050781-24.804687l49-43.398438c12.761719-9.417969 3.3125-38.511719-20.03125-23.996094l-48.230469 31.925782-47.710937 13.804687-33.863281.734375 22.828125-12.089844c8.667969-4.457031 12.378906-14.945312 8.445312-23.878906-1.363281-3.089844-3.578125-5.742188-6.402343-7.664062-4.242188-2.878907-9.582032-3.925782-14.652344-2.871094l-66.914063 13.953125-51.085937-13.78125c-7.300782-1.96875-14.488282-4.386719-21.90625-4.1875-19.011719.519531-37.902344 9.546875-51.957032 22.898437l-.15625.148438-62.6875 76.121094zm0 0" fill="#ffe7cf"/><path d="m422.355469 289.027344-54.222657 39.410156c-14.617187 11.503906-48.695312 33.261719-174.3125 22.449219-17.554687-1.511719-43.074218-6.117188-65.382812-.949219-16.792969 3.890625-49.179688 45.050781-61.726562 61.726562l58.199218 39.539063 3.539063-15.125c4.992187-21.332031 21.859375-38.273437 42.972656-43.160156 22.308594-5.164063 48-1.933594 65.382813.949219 19.605468 3.25 40.203124 2.136718 59.566406-3.214844l28.410156-7.851563c17.929688-4.957031 34.433594-13.304687 49.050781-24.808593l49.003907-43.398438c8.113281-5.992188 7.242187-19.945312-.480469-25.566406zm0 0" fill="#f4d5ba"/><path d="m143.425781 422.867188-98.574219-66.964844c-6.214843-4.222656-14.675781-2.601563-18.894531 3.617187l-14.402343 21.246094c-4.210938 6.210937-2.59375 14.65625 3.613281 18.875l98.574219 66.964844c6.214843 4.222656 14.675781 2.601562 18.894531-3.617188l14.402343-21.242187c4.210938-6.210938 2.59375-14.660156-3.613281-18.878906zm0 0" fill="#0d6e9a"/><path d="m143.425781 422.867188-37.867187-25.726563-29.664063 43.753906 37.847657 25.710938c5.996093 4.074219 14.070312 2.695312 18.417968-2.988281l15.289063-22.550782c3.664062-6.132812 1.964843-14.132812-4.023438-18.199218zm0 0" fill="#09627a"/></svg>